<?xml version="1.0" encoding="UTF-8"?>
<svg id="_레이어_1" data-name="레이어_1" xmlns="http://www.w3.org/2000/svg" viewBox="0 0 49.86 49.86">
  <defs>
    <style>
      .cls-1 {
        fill: #fff;
      }

      .cls-2 {
        fill: none;
      }
    </style>
  </defs>
  <path class="cls-2" d="M29.75,45.24c.09-.02.17-.07.23-.14.06-.07.1-.15.11-.24.01-.09,0-.18-.05-.26-.04-.08-.11-.15-.19-.19-.08-.04-.17-.06-.26-.05-.09,0-.18.05-.25.11-.07.06-.12.14-.14.22-.02.09-.02.18,0,.27.03.11.11.2.21.26.1.05.22.07.33.03Z"/>
  <path class="cls-2" d="M12.87,43.6c-.29-.19-.61-.15-.73.04-.13.19-.03.49.26.69.29.19.61.15.74-.04h0c.12-.19.03-.49-.27-.69Z"/>
  <path class="cls-2" d="M6.44,13.66c-.17-.04-.45-.13-.45-.13,0,0,.21.21.32.34l.53.62.39-.64-.79-.19Z"/>
  <polygon class="cls-2" points="19.21 46.49 17.68 46.01 17.51 46.65 19.03 47.1 19.21 46.49"/>
  <path class="cls-2" d="M46.83,24.07c.23,0,.39-.17.37-.47l-.04-.61-.79.05.04.59c.02.31.19.45.42.45Z"/>
  <path class="cls-2" d="M17.83,4.46c-.11-.15-.27-.38-.27-.38,0,0,.03.3.03.47v.81s.73-.25.73-.25l-.49-.65Z"/>
  <path class="cls-2" d="M32.96,4.82c.01-.18.05-.47.05-.47,0,0-.18.24-.28.37l-.54.64.71.28.06-.81Z"/>
  <path class="cls-2" d="M8.37,31.79c1.36,3.28,3.65,6.08,6.6,8.05,2.95,1.97,6.41,3.02,9.96,3.02,4.75,0,9.31-1.89,12.67-5.26,3.36-3.36,5.25-7.92,5.26-12.67,0-3.55-1.05-7.01-3.02-9.96-1.97-2.95-4.77-5.25-8.05-6.6-3.28-1.36-6.88-1.71-10.36-1.02-3.48.69-6.67,2.4-9.18,4.91s-4.22,5.7-4.91,9.18-.34,7.08,1.02,10.36ZM21.38,38.53l-1.13-.58c.81-.38,1.65-.68,2.52-.89l.52.37-.19.24c-1.48.49-1.71.87-1.71.87ZM24.13,38.88s-.09.05-.15.06c-.05,0-.11,0-.16,0-.03,0-.06-.02-.09-.03-.12-.08-.23-.17-.33-.28-.1-.11-.18-.23-.25-.36-.03-.06-.04-.13-.03-.2,0-.07.04-.13.08-.19l.28-.33,1.25.9-.61.43ZM26.71,38.29c-.06.13-.15.25-.25.35-.1.11-.21.2-.33.28-.06.04-.13.05-.2.05-.07,0-.14-.03-.2-.07l-3.24-2.32-.5-1.95,1.42,1.32s0,.05,0,.07c0,.06.03.12.07.16.04.04.09.06.14.06h.02s.09-.02.12-.05c.04-.03.06-.06.08-.11.02-.04.02-.09,0-.13,0-.04-.03-.08-.06-.12-.05-.04-.1-.06-.17-.06-.03,0-.05,0-.08.02l-1.42-1.32,1.98.35,2.54,3.07c.05.05.07.12.08.19s0,.14-.03.2ZM26.04,36.16s.1.07.16.07h.02c.05,0,.1-.02.14-.06.04-.04.07-.1.07-.16,0-.03,0-.05,0-.08l1.42-1.31-.5,1.95-.93.67-1.35-1.62.66-.8,1.98-.35-1.42,1.31s-.05-.01-.08-.02c-.03,0-.06,0-.09.01-.03.01-.06.03-.08.05-.04.04-.07.1-.07.16,0,.06.02.12.06.17ZM28.47,38.52s-.24-.38-1.72-.87l-.19-.23.51-.37c.87.21,1.72.5,2.53.88l-1.13.58ZM31.19,12.44c.26.45,0,.57,0,.57-.22-.68-1.01-.92-1.01-.92,0,0,.89.62.87,1.02-.01.11-.1.16-.25.13.08.03.15.07.2.13.55.3,1.08.65,1.58,1.03-.15-.17-.29-.36-.39-.57-.28-.58-.41-1.21-.38-1.85.38.5,1.47,1.11,1.66,1.9.13.55-.18.59-.18.59-.02-.79-.78-1.26-.78-1.26,0,0,.73.92.6,1.32-.03.11-.14.14-.27.08.14.1.27.23.4.34.01,0,.02,0,.03.02.25.15.35.28.39.37.35.34.68.69.99,1.06-.18-.31-.3-.65-.36-1-.13-.8-.06-1.61.21-2.37.27.75,1.38,1.88,1.32,2.91-.04.71-.43.65-.43.65.26-.95-.48-1.81-.48-1.81,0,0,.56,1.38.25,1.82-.09.13-.23.12-.38-.04.33.42.64.86.91,1.32.05.07.09.14.13.22.16.28.31.56.45.86-.07-.39-.07-.79,0-1.19.16-.9.53-1.75,1.1-2.48,0,.9.72,2.52.29,3.59-.3.74-.69.53-.69.53.62-.92.17-2.11.17-2.11,0,0,.06,1.67-.41,2.03-.02.02-.04.03-.07.04-.02,0-.05.01-.08,0-.03,0-.05,0-.07-.02-.02-.01-.04-.03-.06-.05.34.79.61,1.61.78,2.45.03.1.04.19.05.29.03.18.07.36.09.54.04-.41.15-.81.34-1.19.42-.85,1.05-1.58,1.82-2.13-.25.91.04,2.74-.71,3.69-.52.66-.86.34-.86.34.9-.74.77-2.07.77-2.07,0,0-.4,1.7-1,1.92-.03.01-.07.02-.1.02-.03,0-.07-.01-.1-.03-.03-.02-.06-.04-.08-.06-.02-.03-.04-.06-.04-.09.05.47.08.95.08,1.42,0,.45-.03.9-.08,1.35.13-.23.28-.46.45-.66.62-.72,1.41-1.28,2.3-1.62-.48.81-.65,2.66-1.62,3.39-.67.51-.92.11-.92.11,1.06-.5,1.26-1.81,1.26-1.81,0,0-.81,1.54-1.45,1.61-.03,0-.06,0-.1,0-.03,0-.06-.02-.09-.04-.13.66-.3,1.31-.53,1.94.21-.18.43-.35.66-.49.84-.48,1.79-.74,2.76-.77-.74.61-1.53,2.33-2.71,2.7-.81.26-.91-.21-.91-.21,1.18-.12,1.83-1.3,1.83-1.3,0,0-1.31,1.2-1.94,1.05-.03,0-.06-.02-.09-.04-.27.6-.6,1.18-.96,1.72.33-.16.68-.28,1.05-.35,1.01-.18,2.04-.12,3.02.2-.95.36-2.34,1.79-3.64,1.75-.9-.03-.84-.52-.84-.52,1.22.3,2.28-.66,2.28-.66,0,0-1.72.74-2.3.37-.03-.02-.05-.04-.07-.07-.4.53-.85,1.02-1.33,1.48.19-.02.39-.03.59-.03,1.07.03,2.11.33,3.03.87-1.03.15-2.76,1.29-4.06.97-.9-.22-.73-.71-.73-.71,1.17.57,2.45-.17,2.45-.17,0,0-1.65.32-2.28-.04-.61.46-1.27.87-1.95,1.22.16.03.33.06.51.11,1.03.31,1.98.87,2.74,1.62-1.07-.12-3.07.56-4.27-.09-.83-.45-.54-.89-.54-.89,1.01.86,2.46.46,2.46.46,0,0-1.74-.11-2.25-.64-.55.2-1.11.35-1.67.47v-.03l.13-.52c1.08-.25,2.13-.65,3.1-1.19.2-.35.32-.73.37-1.12.05-.39.01-.79-.1-1.18,0,0-.03,1.85-.6,2.2-.38.23-.76-.38-.47-1.79.24-1.01.73-1.94,1.42-2.71-.05,1.01.78,2.83.19,4.02-.03.06-.05.11-.08.15.82-.52,1.58-1.15,2.25-1.85.07-.36.06-.74-.01-1.1-.08-.36-.23-.7-.45-1,0,0,.54,1.65.14,2.1-.28.31-.79-.13-.97-1.45-.09-.96.07-1.92.46-2.8.27.89,1.56,2.3,1.39,3.5,0,.05-.03.11-.03.16.6-.72,1.12-1.5,1.55-2.33h-.01c.01-.67-.24-1.32-.7-1.81,0,0,.69,1.39.42,1.84-.19.31-.79.12-1.14-1.03-.38-1.25.08-2.65.08-2.65.36.77,1.66,1.83,1.69,2.92.34-.8.6-1.63.76-2.49-.08-.68-.42-1.3-.95-1.73,0,0,.89,1.31.68,1.8-.14.34-.69.09-1.2-1.03-.33-.8-.46-1.68-.37-2.54.42.65,1.64,1.45,2.01,2.4.04-.4.06-.81.06-1.22,0-.57-.04-1.14-.12-1.71-.17-.63-.58-1.18-1.14-1.52,0,0,1.03,1.15.89,1.66-.1.35-.66.17-1.29-.84-.43-.73-.67-1.56-.69-2.41.4.47,1.33.96,1.92,1.6-.24-.88-.58-1.73-1.01-2.53-.37-.44-.9-.73-1.47-.8,0,0,1.25.53,1.32.99.05.31-.46.38-1.34-.19-.61-.43-1.11-1-1.44-1.66.55.25,1.62.29,2.35.68-.45-.69-.98-1.33-1.56-1.91-.46-.3-1.02-.4-1.56-.31,0,0,1.3.14,1.49.54.14.27-.32.48-1.29.2-.68-.22-1.3-.6-1.8-1.11.58.08,1.58-.2,2.35-.05-.56-.47-1.17-.89-1.81-1.26-.4-.12-.83-.09-1.21.09,0,0,.98-.16,1.22.09.16.18-.14.41-.92.41-.55-.03-1.09-.19-1.57-.47.45-.06,1.16-.47,1.77-.51-.19-.08-.37-.19-.54-.32,0-.06.54.17.74.25-.16-.11-.3-.23-.43-.37-.39-.44-.67-.97-.81-1.54.46.36,1.58.61,1.95,1.26ZM29.16,12.29c.45.21.32.39.32.39-.38-.2-.82-.27-1.25-.2,0,0,1,.07,1.19.33.13.19-.22.39-1.03.19-.57-.16-1.08-.48-1.48-.92.75.17,1.59-.1,2.24.2ZM24.07,19.7c0-.12.01-.23.05-.34.04-.11.1-.21.18-.3.08-.09.18-.15.29-.2.11-.05.22-.07.34-.07s.23.02.34.07c.11.05.2.11.29.2.08.08.14.19.18.3.04.11.06.23.05.34v.79h2.65c.47,0,.92.2,1.25.54.33.34.51.79.51,1.26v4.62c0,.23-.09.45-.25.61s-.38.25-.61.25-.45-.09-.61-.25-.25-.38-.25-.61v-4.13c0-.08,0-.16-.03-.24-.03-.08-.07-.15-.13-.21-.06-.06-.12-.11-.2-.14-.08-.03-.16-.05-.24-.05s-.16.02-.24.05c-.08.03-.14.08-.2.14-.06.06-.1.13-.13.21-.03.08-.04.16-.03.24v4.13c0,.23-.09.45-.25.61s-.38.25-.61.25-.45-.09-.61-.25-.25-.38-.25-.61v-4.12c0-.16-.06-.32-.18-.43-.11-.11-.27-.18-.43-.18s-.32.06-.43.18-.18.27-.18.43v4.12c0,.23-.09.45-.25.61-.16.16-.38.25-.61.25s-.45-.09-.61-.25-.25-.38-.25-.61v-4.13c0-.16-.06-.31-.17-.42s-.26-.17-.42-.17-.31.06-.42.17-.17.26-.17.42v4.12c0,.12-.01.23-.05.34-.04.11-.1.21-.18.3-.08.09-.18.15-.29.2-.11.05-.22.07-.34.07s-.23-.02-.34-.07c-.11-.05-.2-.11-.29-.2-.08-.08-.14-.19-.18-.3-.04-.11-.06-.23-.05-.34v-4.61c0-.05,0-.11,0-.16.04-.44.24-.86.56-1.16.33-.3.75-.47,1.2-.48h2.63v-.8ZM22.94,12.1c-.4.44-.91.76-1.48.92-.81.19-1.15,0-1.03-.19.19-.26,1.19-.33,1.19-.33-.43-.07-.86,0-1.25.2,0,0-.13-.18.32-.39.65-.31,1.49-.03,2.24-.2ZM12.58,26.73s-.05.04-.09.05-.06.01-.1,0c-.63-.06-1.45-1.61-1.45-1.61,0,0,.21,1.32,1.26,1.81,0,0-.25.39-.92-.11-.96-.73-1.14-2.58-1.62-3.39.89.35,1.68.91,2.3,1.63.17.21.32.43.45.67-.05-.45-.08-.9-.08-1.36,0-.48.03-.96.08-1.44,0,.03-.02.07-.04.09-.02.03-.05.05-.08.07-.03.02-.06.03-.1.03s-.07,0-.1-.02c-.6-.22-1-1.92-1-1.92,0,0-.13,1.33.77,2.07,0,0-.34.32-.86-.34-.74-.95-.45-2.78-.71-3.69.77.55,1.4,1.28,1.82,2.13.19.38.3.78.34,1.2.03-.18.06-.36.09-.53,0-.11.03-.22.06-.32.18-.83.44-1.65.78-2.43-.02.02-.04.04-.06.05s-.05.02-.07.02c-.03,0-.05,0-.08,0-.03,0-.05-.02-.07-.04-.48-.36-.41-2.03-.41-2.03,0,0-.45,1.19.17,2.11,0,0-.38.21-.69-.53-.42-1.07.29-2.69.29-3.59.56.72.94,1.57,1.09,2.46.07.39.07.79,0,1.19.14-.29.29-.58.45-.86.03-.09.08-.17.13-.24.28-.46.58-.9.91-1.31-.15.15-.3.17-.39.04-.31-.44.24-1.81.24-1.81,0,0-.73.87-.47,1.81,0,0-.39.06-.43-.65-.05-1.03,1.06-2.16,1.32-2.91.26.76.33,1.58.21,2.37-.06.36-.18.7-.37,1.01.31-.38.65-.74,1.01-1.09.03-.1.13-.23.39-.38l.04-.02c.13-.12.27-.23.4-.34-.13.06-.23.03-.27-.08-.14-.41.59-1.33.59-1.33,0,0-.76.48-.78,1.26,0,0-.31-.05-.18-.59.2-.78,1.29-1.39,1.66-1.9.03.64-.1,1.28-.38,1.85-.1.21-.23.4-.39.57.5-.38,1.03-.73,1.58-1.03.06-.06.13-.1.2-.13-.14.03-.24-.02-.24-.13-.01-.39.87-1.02.87-1.02,0,0-.8.24-1.03.93,0,0-.26-.12,0-.57.37-.65,1.49-.9,1.95-1.26-.14.57-.42,1.1-.81,1.54-.13.14-.28.26-.43.37.19-.08.74-.32.74-.26-.17.13-.35.24-.54.32.61.03,1.32.45,1.77.51-.48.29-1.01.45-1.57.47-.78.01-1.07-.24-.92-.41.23-.25,1.22-.09,1.22-.09-.38-.18-.81-.21-1.21-.09-.64.36-1.25.78-1.81,1.26.78-.15,1.78.12,2.35.04-.5.52-1.11.9-1.8,1.12-.97.27-1.42.07-1.29-.2.2-.4,1.5-.54,1.5-.54-.54-.1-1.1,0-1.56.3-.58.58-1.11,1.23-1.56,1.92.72-.39,1.8-.43,2.35-.68-.34.66-.83,1.23-1.44,1.66-.88.57-1.39.5-1.34.19.07-.46,1.32-.99,1.32-.99-.58.07-1.1.35-1.48.8-.42.8-.76,1.65-.99,2.52.59-.64,1.52-1.13,1.92-1.6-.03.85-.27,1.68-.69,2.41-.63,1.01-1.2,1.18-1.29.84-.14-.51.89-1.66.89-1.66-.57.35-.97.9-1.14,1.54-.08.56-.12,1.13-.12,1.69,0,.42.02.82.06,1.23.37-.95,1.59-1.75,2.01-2.4.09.86-.04,1.73-.37,2.53-.5,1.11-1.06,1.37-1.2,1.03-.21-.47.68-1.79.68-1.79-.53.43-.87,1.05-.95,1.73.16.85.42,1.69.76,2.49.03-1.09,1.33-2.15,1.69-2.92,0,0,.45,1.39.08,2.65-.34,1.15-.95,1.34-1.14,1.03-.27-.45.42-1.84.42-1.84-.46.49-.72,1.14-.71,1.81h-.01c.43.83.96,1.61,1.57,2.32,0-.05-.03-.1-.03-.16-.17-1.2,1.12-2.6,1.39-3.5.39.88.55,1.84.45,2.79-.18,1.32-.69,1.76-.97,1.45-.4-.46.13-2.1.13-2.1-.22.3-.37.64-.45,1-.08.36-.08.74-.01,1.1.67.7,1.43,1.33,2.25,1.85-.03-.05-.05-.1-.08-.15-.59-1.17.23-3.01.18-4.02.69.77,1.18,1.7,1.42,2.71.29,1.41-.09,2.03-.47,1.79-.56-.34-.6-2.2-.6-2.2-.11.38-.15.78-.1,1.18.05.39.17.78.37,1.12.97.53,2.02.93,3.1,1.19l.13.52v.03c-.57-.12-1.13-.28-1.67-.47-.51.53-2.25.64-2.25.64,0,0,1.45.4,2.46-.46,0,0,.29.44-.53.9-1.2.66-3.19-.02-4.25.09.77-.76,1.71-1.32,2.74-1.62.18-.05.35-.08.51-.11-.69-.35-1.34-.76-1.95-1.22-.62.37-2.28.04-2.28.04,0,0,1.28.74,2.45.17,0,0,.17.47-.74.71-1.3.32-3.03-.82-4.06-.97.92-.53,1.95-.83,3.01-.86.2,0,.39,0,.59.03-.48-.46-.93-.95-1.33-1.48-.02.03-.05.05-.07.07-.57.37-2.3-.37-2.3-.37,0,0,1.06.96,2.28.66,0,0,.06.5-.84.52-1.3.04-2.69-1.39-3.64-1.75.97-.31,2.01-.38,3.02-.2.36.07.72.19,1.05.35-.37-.55-.69-1.13-.97-1.73-.03.02-.06.03-.09.04-.63.15-1.93-1.05-1.93-1.05,0,0,.64,1.19,1.83,1.3,0,0-.1.46-.91.21-1.17-.37-1.97-2.08-2.7-2.7.97.02,1.91.29,2.75.77.24.14.47.31.67.5-.23-.63-.41-1.28-.53-1.94Z"/>
  <path class="cls-2" d="M.81,20.13c-.95,4.77-.46,9.72,1.4,14.21,1.86,4.49,5.01,8.34,9.06,11.04,4.04,2.7,8.8,4.14,13.66,4.14,6.52,0,12.77-2.6,17.38-7.21,4.61-4.61,7.2-10.86,7.21-17.38,0-4.86-1.44-9.62-4.14-13.66-2.7-4.04-6.54-7.2-11.04-9.06C29.85.35,24.9-.14,20.13.81s-9.15,3.29-12.59,6.73c-3.44,3.44-5.78,7.82-6.73,12.59ZM5.5,12.74l3.35.68-.43.71-.59-.14-.59.95.4.45-.41.68-2.15-2.64.42-.7ZM3.42,16.97l1.85-.29.46-.05s-.37-.13-.47-.18l-1.42-.56.28-.71,2.98,1.19-.31.75-1.82.29c-.09.02-.47.05-.47.05l.49.18,1.39.55-.26.7-2.98-1.19.29-.74ZM2.42,20.24c.17-.81.7-1.2,1.38-1.17l-.17.75c-.14,0-.28.06-.38.15-.11.09-.17.22-.19.37-.11.51.27.86.84.98s1.06-.09,1.16-.58c.04-.16.03-.33-.05-.48-.08-.15-.2-.26-.36-.32l-.12.59-.57-.12.27-1.3,1.68.35-.11.54-.39-.03c.13.13.22.28.27.45.05.17.05.35,0,.53-.03.2-.11.39-.22.56-.11.17-.26.31-.44.42-.39.22-.84.28-1.28.18-.46-.08-.86-.34-1.13-.72-.11-.17-.18-.36-.21-.56-.03-.2-.02-.4.02-.6ZM1.99,24.66l1.64-.87.42-.2h-.5s-1.52-.07-1.52-.07l.03-.78,3.2.12-.03.8-1.62.88c-.09.05-.44.21-.44.21h.53l1.49.06-.03.77-3.2-.12.03-.8ZM2.26,28.49l2.08-.27c.07,0,.15-.02.21-.05s.12-.08.17-.14c.04-.06.07-.13.08-.2.01-.07,0-.15-.01-.22,0-.07-.02-.15-.05-.21-.03-.07-.08-.12-.14-.17-.06-.05-.13-.08-.2-.09-.07-.02-.15-.02-.22,0l-2.07.27-.1-.79,2.06-.27c.73-.1,1.24.28,1.35,1.17.12.89-.26,1.39-1,1.49l-2.06.27-.1-.79ZM3.14,32.13l1.16-.35-.32-1.07-1.16.35-.23-.76,3.07-.93.23.76-1.28.39.32,1.08,1.28-.39.23.76-3.07.93-.23-.76ZM6.47,35.7c-.86.42-1.78.19-2.2-.67-.15-.29-.21-.62-.15-.95.04-.17.1-.33.2-.47s.23-.26.37-.35l.35.71c-.12.08-.21.2-.24.35s-.01.29.06.42c.23.47.72.5,1.25.24.53-.26.78-.71.56-1.14-.06-.14-.17-.25-.31-.31-.14-.06-.3-.06-.44,0l-.35-.71c.29-.12.61-.12.91-.02.17.07.33.17.47.3.13.13.24.29.31.46.42.84.07,1.73-.79,2.15ZM14.9,43.94l-1.29-.83-.16.24c.39.4.47.93.24,1.31-.29.45-.98.56-1.61.16-.62-.4-.81-1.08-.51-1.53.25-.39.8-.54,1.34-.3l.15-.24-1.29-.83.32-.47,3.11,2.02-.31.47ZM15.65,42.45l-.96-.64c.04.29.24.61.77.95l-.3.47c-.78-.5-1.05-1.02-1.07-1.48-.42.17-1.01.13-1.79-.37l.3-.47c.52.34.9.39,1.17.31l-.97-.63.31-.47,1.16.75.26-.4.54.35-.27.4,1.16.75-.31.47ZM19.46,47.83l-2.19-.66c-.15-.04-.27-.14-.34-.28-.07-.13-.09-.29-.05-.44l.35-1.19,2.75.83-.52,1.73ZM19.34,44.92l-.17.56-1.6-.47c-.14-.04-.27-.14-.34-.28-.07-.13-.09-.29-.05-.43l.46-1.52.63.18-.46,1.48,1.54.47ZM20.88,45.11l-.55-.16-.25.82-.62-.19.62-2.07.62.18-.21.69.55.17-.17.55ZM24.41,46.86h-1.17c-.08,0-.15-.01-.22-.04-.07-.03-.14-.07-.19-.12-.05-.05-.1-.12-.13-.19-.03-.07-.05-.15-.05-.22v-2.16h1.75v.59h-1.11v1.57h1.12v.58ZM26.37,48.44h-.64v-2.3h-.35v2.3h-.64v-4.32h.64v1.44h.35v-1.44h.64v4.32ZM28.6,45.11c-.06-.25-.03-.51.1-.73l-.46.12-.15-.56.94-.25-.12-.46.62-.17.12.46.94-.25.15.56-.47.12c.22.13.38.34.45.58.03.14.03.27,0,.41-.02.14-.07.27-.15.38-.07.12-.17.22-.28.3-.11.08-.24.14-.38.17-.27.08-.55.05-.8-.08-.24-.13-.43-.35-.51-.61ZM31.91,47.41l-.32-1.19-2.15.57-.15-.56,2.22-.59c.15-.04.31-.02.44.06.13.08.23.2.27.35l.32,1.19-.62.17ZM31.98,45.15l-.62.17-.55-2.09.62-.16.19.69.55-.15.15.56-.55.15.22.83ZM33.27,42.4l2.46-1.48c.07-.04.14-.07.21-.08.08-.01.15,0,.23.01.07.02.14.05.2.1.06.05.11.1.15.17l1,1.68-.55.33-1-1.68-2.41,1.44-.3-.5ZM35.09,45.76l-.3-.5.54-.32-.87-1.45.55-.33.87,1.45.43-.25-.87-1.45.55-.33.87,1.45,1.2-.72.3.5-3.26,1.95ZM45.8,34.48h-.92c-.24,0-.53-.03-.53-.03,0,0,.19.22.34.41l.56.73-.37.75-1.34-1.86-1.06-.52.35-.71,1.06.54,2.29-.09-.38.78ZM46.28,33.42l-.64-.21.3-.89-2.4-.8.25-.75,2.4.79.29-.88.64.21-.84,2.53ZM47.25,30.22l-3.13-.68.17-.77,3.13.68-.17.77ZM47.83,27.08c-.06.69-.43,1.2-1.1,1.16l.07-.77c.25,0,.4-.2.43-.47.03-.28-.08-.47-.25-.49-.22-.02-.3.21-.45.69-.19.58-.44,1.1-1.11,1.03s-.99-.67-.92-1.4c.08-.85.5-1.37,1.21-1.32l-.07.79c-.32,0-.48.2-.51.58-.03.26.04.52.28.54.25.02.32-.23.47-.66.18-.54.41-1.11,1.07-1.05.68.06.93.67.87,1.36ZM47.83,23.67c.04.65-.26,1.15-.85,1.19-.17.02-.35-.02-.49-.11s-.26-.23-.32-.39h-.01c-.03.13-.1.25-.2.34-.1.09-.22.15-.36.16-.42.09-.82.07-.85.19h-.04l-.05-.77c.04-.09.42-.1.73-.17.07,0,.13-.03.19-.06.06-.03.11-.08.15-.13.04-.05.07-.11.08-.18.01-.06.02-.13,0-.2l-.03-.47-1.2.08-.05-.8,3.19-.2.1,1.53ZM47.57,21.09l-.64.14-.36-1.6-.56.13.31,1.37-.6.14-.31-1.37-.67.15.36,1.62-.65.15-.54-2.4,3.12-.7.53,2.37ZM46.1,16.07l-1.39,1.07c-.2.15-.47.34-.47.34,0,0,.34-.04.58-.07l1.75-.14.29.75-3.37.17-.29-.76,2.61-2.13.3.77ZM45.45,14.68l-2.84,1.48-.37-.7,2.84-1.48.37.7ZM43.49,11.45l-.79,1.7-.21.41s.31-.23.41-.29l1.25-.86.44.64-2.63,1.82-.45-.66.77-1.68c.04-.09.22-.43.22-.43l-.43.31-1.23.85-.44-.63,2.63-1.82.46.66ZM38.95,9.43l1.49-1.44.55.57-1.51,1.46c-.06.04-.11.1-.14.17-.03.07-.05.14-.05.21s.02.15.05.21c.03.07.08.12.14.17.05.06.1.1.17.14.07.03.14.05.21.05s.15-.01.21-.04c.07-.03.13-.07.17-.13l1.5-1.46.56.57-1.49,1.44c-.53.51-1.16.51-1.78-.13-.62-.64-.62-1.27-.09-1.79ZM35.68,4.64l.68.41-1.29,2.18,1.24.73-.34.58-1.92-1.13,1.63-2.76ZM33.71,3.73l-.1,3.4-.78-.3.04-.61-1.04-.41-.38.47-.73-.29,2.25-2.56.75.29ZM28.28,2.21l.78.16.61,1.76.13.44s.07-.38.09-.49l.31-1.49.76.16-.65,3.14-.78-.16-.6-1.74c-.04-.1-.14-.47-.14-.47,0,0-.08.41-.1.51l-.31,1.46-.76-.16.65-3.12ZM25.69,1.94c.97.04,1.57.77,1.52,1.73-.05.96-.69,1.65-1.66,1.61-.97-.04-1.54-.77-1.51-1.73.04-.96.67-1.65,1.65-1.61ZM23.15,2.06l.3,3.19-.79.07-.3-3.19.79-.07ZM21.67,2.19l.13.66-.92.19.5,2.48-.78.16-.5-2.48-.91.18-.13-.66,2.61-.53ZM16.92,3.43l.77-.27,2.16,2.63-.79.28-.37-.47-1.06.37.02.61-.75.26.02-3.4ZM13.28,5.16l1.61.95.39.25s-.18-.33-.24-.43l-.74-1.34.68-.38,1.55,2.8-.7.39-1.59-.93c-.09-.05-.41-.26-.41-.26,0,0,.21.36.26.46l.73,1.3-.68.38-1.56-2.8.7-.39ZM14.78,9.74c3-2.01,6.53-3.08,10.15-3.08,4.84,0,9.48,1.93,12.91,5.36,3.42,3.42,5.35,8.06,5.36,12.91,0,3.61-1.07,7.14-3.08,10.15-2.01,3-4.86,5.34-8.2,6.73-3.34,1.38-7.01,1.74-10.55,1.04-3.54-.7-6.8-2.44-9.35-5-2.55-2.55-4.29-5.81-5-9.35-.7-3.54-.34-7.21,1.04-10.55,1.38-3.34,3.72-6.19,6.73-8.2ZM8.85,8.47l2.4,2.13-.47.54-1.21-1.06c-.1-.09-.47-.43-.47-.43,0,0,.28.4.35.51l.93,1.45-.43.49-1.55-.75c-.11-.05-.55-.29-.55-.29,0,0,.39.33.49.42l1.2,1.07-.48.52-2.4-2.13.71-.8,1.31.64c.19.09.67.35.67.35,0,0-.31-.45-.43-.62l-.79-1.23.71-.8Z"/>
  <path class="cls-2" d="M25.58,4.64c.52.02.79-.41.81-1,.02-.59-.22-1.04-.74-1.06-.52-.02-.8.42-.82,1-.02.58.22,1.04.74,1.06Z"/>
  <path class="cls-1" d="M24.12,34.83l-1.98-.35,1.42,1.32s.05-.02.08-.02c.06,0,.12.02.17.06.03.03.05.07.06.12,0,.04,0,.09,0,.13-.02.04-.04.08-.08.11-.04.03-.08.04-.12.05h-.02c-.05,0-.1-.02-.14-.06-.04-.04-.07-.1-.07-.16,0-.02,0-.05,0-.07l-1.42-1.32.5,1.95,3.24,2.32c.06.04.12.06.2.07.07,0,.14-.01.2-.05.12-.07.24-.17.33-.28.1-.1.18-.22.25-.35.03-.06.04-.13.03-.2s-.04-.13-.08-.19l-2.54-3.07Z"/>
  <path class="cls-1" d="M23.2,37.88c-.04.05-.07.12-.08.19,0,.07,0,.14.03.2.07.13.15.25.25.36.1.11.21.2.33.28.03.01.06.03.09.03.05.01.11.02.16,0,.05,0,.1-.03.15-.06l.61-.43-1.25-.9-.28.33Z"/>
  <path class="cls-1" d="M26.13,35.79s.06-.02.09-.01c.03,0,.05,0,.08.02l1.42-1.31-1.98.35-.66.8,1.35,1.62.93-.67.5-1.95-1.42,1.31s0,.05,0,.08c0,.06-.03.12-.07.16-.04.04-.09.06-.14.06h-.02c-.06,0-.12-.03-.16-.07-.04-.05-.06-.11-.06-.17,0-.06.03-.12.07-.16.02-.02.05-.04.08-.05Z"/>
  <path class="cls-1" d="M23.3,44.7h1.11v-.59h-1.75v2.16c0,.08.02.15.05.22.03.07.07.14.13.19.05.05.12.1.19.12.07.03.15.04.22.04h1.17v-.58h-1.12v-1.57Z"/>
  <polygon class="cls-1" points="25.72 45.56 25.37 45.56 25.37 44.12 24.73 44.12 24.73 48.44 25.37 48.44 25.37 46.14 25.72 46.14 25.72 48.44 26.37 48.44 26.37 44.12 25.72 44.12 25.72 45.56"/>
  <path class="cls-1" d="M17.64,42.77l-.46,1.52c-.04.15-.02.3.05.43.07.13.19.23.34.28l1.6.47.17-.56-1.54-.47.46-1.48-.63-.18Z"/>
  <polygon class="cls-1" points="20.71 43.7 20.09 43.51 19.47 45.58 20.09 45.77 20.33 44.95 20.88 45.11 21.05 44.55 20.5 44.39 20.71 43.7"/>
  <path class="cls-1" d="M16.88,46.45c-.04.15-.02.3.05.44.07.13.19.23.34.28l2.19.66.52-1.73-2.75-.83-.35,1.19ZM17.68,46.01l1.53.47-.19.62-1.52-.46.17-.64Z"/>
  <polygon class="cls-1" points="36.85 44.03 35.98 42.58 35.43 42.91 36.3 44.36 35.87 44.61 35.01 43.16 34.46 43.49 35.32 44.94 34.79 45.26 35.09 45.76 38.35 43.81 38.05 43.31 36.85 44.03"/>
  <path class="cls-1" d="M36.97,43.13l.55-.33-1-1.68c-.04-.07-.09-.12-.15-.17-.06-.05-.13-.08-.2-.1-.07-.02-.15-.02-.23-.01-.08.01-.15.04-.21.08l-2.46,1.48.3.5,2.41-1.44,1,1.68Z"/>
  <polygon class="cls-1" points="32.16 43.61 31.61 43.75 31.42 43.06 30.8 43.22 31.36 45.31 31.98 45.15 31.76 44.31 32.31 44.17 32.16 43.61"/>
  <path class="cls-1" d="M31.95,45.7c-.13-.08-.29-.1-.44-.06l-2.22.59.15.56,2.15-.57.32,1.19.62-.17-.32-1.19c-.04-.15-.14-.28-.27-.35Z"/>
  <path class="cls-1" d="M29.9,45.81c.14-.03.26-.09.38-.17.11-.08.21-.18.28-.3.07-.12.12-.25.15-.38.02-.14.02-.28,0-.41-.07-.25-.23-.45-.45-.58l.47-.12-.15-.56-.94.25-.12-.46-.62.17.12.46-.94.25.15.56.46-.12c-.13.22-.16.48-.1.73.08.26.27.48.51.61.24.13.53.16.8.08ZM29.21,44.95c-.03-.09-.03-.18,0-.27.02-.09.07-.17.14-.22.07-.06.15-.1.25-.11.09,0,.18,0,.26.05.08.04.15.11.19.19.04.08.06.17.05.26-.01.09-.05.18-.11.24-.06.07-.14.12-.23.14-.11.03-.23.02-.33-.03-.1-.05-.18-.15-.21-.26Z"/>
  <path class="cls-1" d="M11.78,41.91l1.29.83-.15.24c-.55-.24-1.09-.09-1.34.3-.29.45-.11,1.13.51,1.53.62.4,1.32.29,1.61-.16.24-.38.15-.91-.24-1.31l.16-.24,1.29.83.31-.47-3.11-2.02-.32.47ZM13.13,44.29h0c-.13.19-.44.23-.74.04-.29-.19-.39-.49-.26-.69.13-.19.44-.24.73-.04.29.19.39.5.27.69Z"/>
  <path class="cls-1" d="M15.07,40.84l-.54-.35-.26.4-1.16-.75-.31.47.97.63c-.27.08-.65.03-1.17-.31l-.3.47c.78.5,1.37.53,1.79.37.02.45.3.97,1.07,1.48l.3-.47c-.53-.34-.73-.66-.77-.95l.96.64.31-.47-1.16-.75.27-.4Z"/>
  <path class="cls-1" d="M20.25,20.97c-.33.3-.53.72-.56,1.16,0,.05,0,.11,0,.16v4.61c0,.12.01.23.05.34.04.11.1.21.18.3.08.09.18.15.29.2.11.05.22.07.34.07s.23-.02.34-.07c.11-.05.2-.11.29-.2.08-.08.14-.19.18-.3.04-.11.06-.23.05-.34v-4.12c0-.16.06-.31.17-.42s.26-.17.42-.17.31.06.42.17.17.26.17.42v4.13c0,.23.09.45.25.61s.38.25.61.25.45-.09.61-.25c.16-.16.25-.38.25-.61v-4.12c0-.16.06-.32.18-.43s.27-.18.43-.18.32.06.43.18c.11.11.18.27.18.43v4.12c0,.23.09.45.25.61s.38.25.61.25.45-.09.61-.25.25-.38.25-.61v-4.13c0-.08,0-.16.03-.24.03-.08.07-.15.13-.21.06-.06.12-.11.2-.14.08-.03.16-.05.24-.05s.16.02.24.05c.08.03.14.08.2.14.06.06.1.13.13.21.03.08.04.16.03.24v4.13c0,.23.09.45.25.61s.38.25.61.25.45-.09.61-.25.25-.38.25-.61v-4.62c0-.47-.18-.93-.51-1.26-.33-.34-.78-.53-1.25-.54h-2.65v-.79c0-.12-.01-.23-.05-.34-.04-.11-.1-.21-.18-.3-.08-.09-.18-.15-.29-.2-.11-.05-.22-.07-.34-.07s-.23.02-.34.07c-.11.05-.2.11-.29.2-.08.08-.14.19-.18.3-.04.11-.06.23-.05.34v.8h-2.63c-.44,0-.87.17-1.2.48Z"/>
  <path class="cls-1" d="M20.38,12.68c.38-.2.82-.27,1.25-.2,0,0-1,.07-1.19.33-.13.18.22.39,1.03.19.57-.16,1.08-.48,1.48-.92-.75.17-1.59-.1-2.24.2-.45.2-.32.39-.32.39Z"/>
  <path class="cls-1" d="M9.68,27.4c.73.61,1.53,2.33,2.7,2.7.81.26.91-.21.91-.21-1.19-.11-1.83-1.3-1.83-1.3,0,0,1.3,1.2,1.93,1.05.03,0,.06-.02.09-.04.28.6.6,1.18.97,1.73-.33-.16-.68-.28-1.05-.35-1.01-.19-2.04-.12-3.02.2.95.36,2.34,1.79,3.64,1.75.9-.03.84-.52.84-.52-1.22.3-2.28-.66-2.28-.66,0,0,1.72.74,2.3.37.03-.02.05-.04.07-.07.41.53.85,1.02,1.33,1.48-.2-.02-.39-.03-.59-.03-1.06.03-2.09.33-3.01.86,1.04.15,2.76,1.29,4.06.97.9-.24.74-.71.74-.71-1.17.57-2.45-.17-2.45-.17,0,0,1.66.32,2.28-.04.61.46,1.27.87,1.95,1.22-.16.03-.33.06-.51.11-1.03.31-1.98.86-2.74,1.62,1.06-.12,3.05.56,4.25-.09.82-.46.53-.9.53-.9-1.01.86-2.46.46-2.46.46,0,0,1.74-.11,2.25-.64.55.2,1.11.35,1.67.47v-.03l-.13-.52c-1.08-.25-2.13-.65-3.1-1.19-.2-.35-.32-.73-.37-1.12-.05-.39-.01-.79.1-1.18,0,0,.03,1.85.6,2.2.39.24.76-.38.47-1.79-.24-1.01-.73-1.94-1.42-2.71.05,1.01-.78,2.85-.18,4.02.03.05.06.11.08.15-.82-.53-1.57-1.15-2.25-1.85-.07-.36-.06-.74.01-1.1.08-.36.23-.7.45-1,0,0-.54,1.65-.13,2.1.27.31.79-.13.97-1.45.09-.95-.06-1.91-.45-2.79-.27.9-1.56,2.3-1.39,3.5,0,.06.02.11.03.16-.61-.71-1.14-1.49-1.57-2.32h.01c0-.67.25-1.32.71-1.81,0,0-.69,1.39-.42,1.84.18.31.79.12,1.14-1.03.37-1.25-.08-2.65-.08-2.65-.36.77-1.66,1.83-1.69,2.92-.34-.8-.6-1.63-.76-2.49.08-.68.42-1.3.95-1.73,0,0-.89,1.32-.68,1.79.14.34.7.09,1.2-1.03.33-.8.46-1.67.37-2.53-.42.65-1.64,1.45-2.01,2.4-.04-.41-.06-.81-.06-1.23,0-.57.04-1.13.12-1.69.17-.64.58-1.19,1.14-1.54,0,0-1.03,1.15-.89,1.66.09.34.66.17,1.29-.84.43-.73.66-1.56.69-2.41-.4.47-1.33.97-1.92,1.6.24-.88.57-1.72.99-2.52.37-.45.9-.73,1.48-.8,0,0-1.25.53-1.32.99-.05.31.46.38,1.34-.19.61-.43,1.11-1,1.44-1.66-.55.25-1.62.29-2.35.68.45-.69.98-1.33,1.56-1.92.46-.29,1.02-.4,1.56-.3,0,0-1.3.14-1.5.54-.14.27.32.47,1.29.2.68-.22,1.3-.61,1.8-1.12-.58.08-1.58-.2-2.35-.04.57-.47,1.17-.89,1.81-1.26.4-.12.83-.09,1.21.09,0,0-.99-.16-1.22.09-.16.18.14.42.92.41.55-.03,1.09-.19,1.57-.47-.45-.06-1.15-.47-1.77-.51.19-.08.37-.19.54-.32,0-.06-.55.17-.74.26.16-.11.3-.23.43-.37.39-.44.67-.97.81-1.54-.46.36-1.58.61-1.95,1.26-.26.45,0,.57,0,.57.23-.69,1.03-.93,1.03-.93,0,0-.88.62-.87,1.02,0,.11.1.16.24.13-.08.03-.15.07-.2.13-.55.3-1.08.65-1.58,1.03.15-.17.29-.37.39-.57.28-.58.41-1.21.38-1.85-.37.51-1.46,1.12-1.66,1.9-.13.55.18.59.18.59.02-.79.78-1.26.78-1.26,0,0-.73.92-.59,1.33.04.11.14.14.27.08-.14.11-.27.22-.4.34l-.04.02c-.26.15-.35.28-.39.38-.36.34-.69.7-1.01,1.09.19-.31.31-.65.37-1.01.13-.8.06-1.61-.21-2.37-.27.75-1.38,1.88-1.32,2.91.04.71.43.65.43.65-.26-.95.47-1.81.47-1.81,0,0-.55,1.37-.24,1.81.09.13.24.12.39-.04-.33.42-.64.86-.91,1.31-.06.07-.1.15-.13.24-.16.28-.31.56-.45.86.07-.39.07-.79,0-1.19-.16-.9-.53-1.74-1.09-2.46,0,.9-.71,2.52-.29,3.59.3.74.69.53.69.53-.62-.92-.17-2.11-.17-2.11,0,0-.07,1.67.41,2.03.02.02.04.03.07.04.03,0,.05.01.08,0,.03,0,.05-.01.07-.02s.04-.03.06-.05c-.34.78-.6,1.59-.78,2.43-.03.11-.05.21-.06.32-.03.18-.07.35-.09.53-.04-.42-.15-.83-.34-1.2-.42-.85-1.05-1.58-1.82-2.13.26.91-.03,2.74.71,3.69.52.66.86.34.86.34-.9-.74-.77-2.07-.77-2.07,0,0,.4,1.7,1,1.92.03.01.07.02.1.02s.07-.01.1-.03c.03-.02.06-.04.08-.07.02-.03.03-.06.04-.09-.06.48-.08.96-.08,1.44,0,.45.03.91.08,1.36-.13-.24-.28-.46-.45-.67-.62-.73-1.41-1.29-2.3-1.63.47.81.65,2.66,1.62,3.39.67.51.92.11.92.11-1.06-.5-1.26-1.81-1.26-1.81,0,0,.81,1.54,1.45,1.61.03,0,.07,0,.1,0s.06-.02.09-.05c.12.66.3,1.31.53,1.94-.21-.19-.43-.35-.67-.5-.84-.48-1.79-.74-2.75-.77Z"/>
  <path class="cls-1" d="M29.42,12.82c-.19-.26-1.19-.33-1.19-.33.43-.07.86,0,1.25.2,0,0,.13-.18-.32-.39-.66-.31-1.49-.03-2.24-.2.39.44.91.76,1.48.92.81.19,1.16,0,1.03-.19Z"/>
  <path class="cls-1" d="M30.49,13.09c-.19-.08-.74-.32-.74-.25.17.13.35.24.54.32-.61.03-1.32.45-1.77.51.48.29,1.01.45,1.57.47.78,0,1.07-.24.92-.41-.24-.25-1.22-.09-1.22-.09.38-.18.81-.21,1.21-.09.64.36,1.25.78,1.81,1.26-.77-.15-1.78.12-2.35.05.5.51,1.12.9,1.8,1.11.97.28,1.42.07,1.29-.2-.2-.4-1.49-.54-1.49-.54.54-.1,1.1.01,1.56.31.58.58,1.1,1.23,1.56,1.91-.72-.39-1.8-.43-2.35-.68.34.66.83,1.23,1.44,1.66.88.57,1.39.5,1.34.19-.08-.46-1.32-.99-1.32-.99.57.07,1.1.35,1.47.8.43.8.77,1.65,1.01,2.53-.59-.64-1.52-1.13-1.92-1.6.03.85.27,1.68.69,2.41.63,1.01,1.19,1.19,1.29.84.14-.51-.89-1.66-.89-1.66.56.34.97.89,1.14,1.52.08.57.12,1.14.12,1.71,0,.41-.02.82-.06,1.22-.37-.95-1.59-1.74-2.01-2.4-.09.87.04,1.74.37,2.54.51,1.11,1.06,1.37,1.2,1.03.21-.49-.68-1.8-.68-1.8.53.43.87,1.05.95,1.73-.16.85-.42,1.69-.76,2.49-.03-1.09-1.33-2.15-1.69-2.92,0,0-.45,1.39-.08,2.65.34,1.15.95,1.34,1.14,1.03.27-.45-.42-1.84-.42-1.84.46.49.71,1.14.7,1.81h.01c-.43.83-.95,1.62-1.55,2.33,0-.05.02-.1.03-.16.17-1.2-1.12-2.61-1.39-3.5-.39.88-.55,1.84-.46,2.8.18,1.32.69,1.76.97,1.45.4-.46-.14-2.1-.14-2.1.22.3.37.64.45,1,.08.36.08.74.01,1.1-.67.71-1.43,1.33-2.25,1.85.03-.05.05-.09.08-.15.59-1.19-.24-3.01-.19-4.02-.69.77-1.18,1.7-1.42,2.71-.28,1.41.09,2.02.47,1.79.56-.34.6-2.2.6-2.2.11.38.15.78.1,1.18-.05.39-.17.78-.37,1.12-.97.53-2.02.93-3.1,1.19l-.13.52v.03c.57-.12,1.13-.28,1.67-.47.51.53,2.25.64,2.25.64,0,0-1.45.4-2.46-.46,0,0-.29.44.54.89,1.2.66,3.2-.02,4.27.09-.77-.76-1.71-1.32-2.74-1.62-.19-.05-.36-.08-.51-.11.69-.35,1.34-.76,1.95-1.22.63.36,2.28.04,2.28.04,0,0-1.28.74-2.45.17,0,0-.17.49.73.71,1.3.32,3.03-.82,4.06-.97-.92-.54-1.96-.83-3.03-.87-.2,0-.39,0-.59.03.48-.46.93-.95,1.33-1.48.02.03.04.05.07.07.57.37,2.3-.37,2.3-.37,0,0-1.06.96-2.28.66,0,0-.06.5.84.52,1.3.04,2.7-1.39,3.64-1.75-.97-.31-2.01-.38-3.02-.2-.36.07-.71.19-1.05.35.37-.55.69-1.12.96-1.72.03.02.06.03.09.04.63.15,1.94-1.05,1.94-1.05,0,0-.65,1.19-1.83,1.3,0,0,.1.46.91.21,1.17-.37,1.97-2.08,2.71-2.7-.97.02-1.92.29-2.76.77-.24.14-.46.31-.66.49.23-.63.41-1.28.53-1.94.03.02.05.03.09.04.03,0,.06.01.1,0,.63-.06,1.45-1.61,1.45-1.61,0,0-.2,1.32-1.26,1.81,0,0,.25.39.92-.11.97-.73,1.14-2.58,1.62-3.39-.89.34-1.68.9-2.3,1.62-.17.21-.32.43-.45.66.05-.45.08-.9.08-1.35,0-.48-.03-.95-.08-1.42,0,.03.02.06.04.09.02.03.05.05.08.06.03.02.06.02.1.03.03,0,.07,0,.1-.02.6-.22,1-1.92,1-1.92,0,0,.13,1.33-.77,2.07,0,0,.34.32.86-.34.75-.95.46-2.78.71-3.69-.77.55-1.4,1.28-1.82,2.13-.18.37-.3.77-.34,1.19-.03-.18-.06-.36-.09-.54,0-.1-.02-.2-.05-.29-.18-.84-.44-1.66-.78-2.45.02.02.04.04.06.05.02.01.05.02.07.02.03,0,.05,0,.08,0,.02,0,.05-.02.07-.04.47-.36.41-2.03.41-2.03,0,0,.45,1.19-.17,2.11,0,0,.38.21.69-.53.43-1.07-.29-2.69-.29-3.59-.56.72-.94,1.57-1.1,2.48-.07.39-.07.79,0,1.19-.14-.29-.29-.58-.45-.86-.03-.08-.07-.15-.13-.22-.28-.46-.58-.9-.91-1.32.15.15.29.16.38.04.31-.45-.25-1.82-.25-1.82,0,0,.74.86.48,1.81,0,0,.39.06.43-.65.05-1.03-1.06-2.16-1.32-2.91-.26.76-.33,1.58-.21,2.37.06.35.18.69.36,1-.31-.37-.64-.73-.99-1.06-.03-.1-.13-.22-.39-.37-.01,0-.02-.01-.03-.02-.13-.12-.27-.24-.4-.34.13.06.24.03.27-.08.13-.41-.6-1.32-.6-1.32,0,0,.75.47.78,1.26,0,0,.31-.05.18-.59-.19-.79-1.28-1.39-1.66-1.9-.03.64.1,1.28.38,1.85.1.21.23.4.39.57-.5-.38-1.03-.73-1.58-1.03-.06-.06-.13-.1-.2-.13.15.03.24-.02.25-.13.01-.4-.87-1.02-.87-1.02,0,0,.79.24,1.01.92,0,0,.26-.12,0-.57-.37-.65-1.49-.9-1.95-1.26.14.57.42,1.1.81,1.54.13.14.28.26.43.37Z"/>
  <path class="cls-1" d="M7.02,28.49c.7,3.54,2.44,6.8,5,9.35,2.55,2.55,5.81,4.29,9.35,5,3.54.7,7.21.34,10.55-1.04,3.34-1.38,6.19-3.72,8.2-6.73,2.01-3,3.08-6.53,3.08-10.15,0-4.84-1.93-9.48-5.36-12.91-3.42-3.42-8.06-5.35-12.91-5.36-3.61,0-7.14,1.07-10.15,3.08-3,2.01-5.34,4.86-6.73,8.2-1.38,3.34-1.74,7.01-1.04,10.55ZM12.25,12.25c2.51-2.51,5.7-4.21,9.18-4.91,3.48-.69,7.08-.34,10.36,1.02,3.28,1.36,6.08,3.66,8.05,6.6,1.97,2.95,3.02,6.41,3.02,9.96,0,4.75-1.9,9.31-5.26,12.67-3.36,3.36-7.92,5.25-12.67,5.26-3.55,0-7.01-1.05-9.96-3.02-2.95-1.97-5.25-4.77-6.6-8.05s-1.71-6.88-1.02-10.36,2.4-6.67,4.91-9.18Z"/>
  <path class="cls-1" d="M6.94,33.09c-.13-.13-.29-.23-.47-.3-.29-.11-.62-.1-.91.02l.35.71c.14-.05.3-.05.44,0,.14.06.25.17.31.31.21.42-.04.88-.56,1.14-.53.26-1.02.24-1.25-.24-.07-.13-.09-.28-.06-.42s.12-.27.24-.35l-.35-.71c-.15.09-.28.21-.37.35s-.17.3-.2.47c-.05.32,0,.66.15.95.42.86,1.34,1.09,2.2.67.86-.42,1.2-1.31.79-2.15-.07-.17-.18-.33-.31-.46Z"/>
  <polygon class="cls-1" points="6.21 31.2 4.93 31.59 4.6 30.51 5.88 30.12 5.65 29.36 2.59 30.29 2.82 31.05 3.98 30.7 4.3 31.77 3.14 32.13 3.37 32.89 6.44 31.96 6.21 31.2"/>
  <path class="cls-1" d="M5.43,27.51c-.12-.88-.62-1.27-1.35-1.17l-2.06.27.1.79,2.07-.27c.07-.02.15-.02.22,0,.07.02.14.05.2.09.06.05.11.1.14.17.03.07.05.14.05.21.02.07.03.15.01.22-.01.07-.04.14-.08.2-.04.06-.1.11-.17.14s-.14.05-.21.05l-2.08.27.1.79,2.06-.27c.74-.1,1.12-.61,1-1.49Z"/>
  <path class="cls-1" d="M5.19,24.82l-1.49-.06h-.53s.35-.16.44-.21l1.62-.88.03-.8-3.2-.12-.03.78,1.52.06h.5s-.42.21-.42.21l-1.64.87-.03.8,3.2.12.03-.77Z"/>
  <path class="cls-1" d="M2.61,21.4c.27.38.67.64,1.13.72.43.1.89.04,1.28-.18.17-.11.32-.25.44-.42.11-.17.19-.36.22-.56.05-.17.05-.35,0-.53-.05-.17-.14-.33-.27-.45l.39.03.11-.54-1.68-.35-.27,1.3.57.12.12-.59c.16.06.28.17.36.32.08.15.09.32.05.48-.1.49-.59.71-1.16.58s-.95-.47-.84-.98c.02-.14.09-.27.19-.37.11-.09.24-.15.38-.15l.17-.75c-.68-.04-1.21.36-1.38,1.17-.05.2-.06.4-.02.6.03.2.11.39.21.56Z"/>
  <path class="cls-1" d="M6.36,18.2l-1.39-.55-.49-.18s.39-.04.47-.05l1.82-.29.31-.75-2.98-1.19-.28.71,1.42.56c.1.04.47.18.47.18l-.46.05-1.85.29-.29.74,2.98,1.19.26-.7Z"/>
  <path class="cls-1" d="M7.64,15.4l-.4-.45.59-.95.59.14.43-.71-3.35-.68-.42.7,2.15,2.64.41-.68ZM6.31,13.87c-.11-.13-.32-.34-.32-.34,0,0,.28.09.45.13l.79.19-.39.64-.53-.62Z"/>
  <path class="cls-1" d="M9.35,11.12s-.47-.26-.67-.35l-1.31-.64-.71.8,2.4,2.13.48-.52-1.2-1.07c-.1-.09-.49-.42-.49-.42,0,0,.43.24.55.29l1.55.75.43-.49-.93-1.45c-.06-.1-.35-.51-.35-.51,0,0,.37.35.47.43l1.21,1.06.47-.54-2.4-2.13-.71.8.79,1.23c.11.17.43.62.43.62Z"/>
  <path class="cls-1" d="M14.82,7.97l-.73-1.3c-.05-.1-.26-.46-.26-.46,0,0,.32.22.41.26l1.59.93.7-.39-1.55-2.8-.68.38.74,1.34c.05.1.24.43.24.43l-.39-.25-1.61-.95-.7.39,1.56,2.8.68-.38Z"/>
  <path class="cls-1" d="M17.63,5.96l1.06-.37.37.47.79-.28-2.16-2.63-.77.27-.02,3.4.75-.26-.02-.61ZM17.59,4.55c0-.17-.03-.47-.03-.47,0,0,.16.24.27.38l.49.65-.71.25v-.81Z"/>
  <polygon class="cls-1" points="20.1 3.19 20.6 5.67 21.38 5.51 20.88 3.03 21.8 2.84 21.67 2.19 19.06 2.71 19.19 3.37 20.1 3.19"/>
  <rect class="cls-1" x="22.51" y="2.09" width=".79" height="3.2" transform="translate(-.24 2.16) rotate(-5.36)"/>
  <path class="cls-1" d="M25.55,5.28c.97.04,1.61-.65,1.66-1.61.05-.96-.55-1.69-1.52-1.73-.97-.04-1.61.65-1.65,1.61-.04.96.54,1.69,1.51,1.73ZM25.66,2.58c.52.02.76.47.74,1.06-.02.59-.29,1.02-.81,1-.52-.02-.76-.47-.74-1.06.02-.58.3-1.02.82-1Z"/>
  <path class="cls-1" d="M28.7,4.03c.02-.11.1-.51.1-.51,0,0,.1.37.14.47l.6,1.74.78.16.65-3.14-.76-.16-.31,1.49c-.02.11-.09.49-.09.49l-.13-.44-.61-1.76-.78-.16-.65,3.12.76.16.31-1.46Z"/>
  <path class="cls-1" d="M31.45,6.28l.38-.47,1.04.41-.04.61.78.3.1-3.4-.75-.29-2.25,2.56.73.29ZM32.73,4.72c.11-.14.28-.37.28-.37,0,0-.04.29-.05.47l-.06.81-.71-.28.54-.64Z"/>
  <polygon class="cls-1" points="36.32 7.95 35.08 7.22 36.37 5.05 35.68 4.64 34.05 7.4 35.97 8.53 36.32 7.95"/>
  <path class="cls-1" d="M40.82,11.35l1.49-1.44-.56-.57-1.5,1.46c-.05.06-.11.1-.17.13-.07.03-.14.05-.21.04s-.14-.02-.21-.05c-.07-.03-.12-.08-.17-.14-.06-.04-.11-.1-.14-.17-.03-.07-.05-.14-.05-.21s.02-.15.05-.21c.03-.07.08-.12.14-.17l1.51-1.46-.55-.57-1.49,1.44c-.54.52-.54,1.15.09,1.79.62.64,1.25.64,1.78.13Z"/>
  <path class="cls-1" d="M40.84,13.24l1.23-.85.43-.31s-.19.34-.22.43l-.77,1.68.45.66,2.63-1.82-.44-.64-1.25.86c-.09.06-.41.29-.41.29l.21-.41.79-1.7-.46-.66-2.63,1.82.44.63Z"/>
  <rect class="cls-1" x="42.25" y="14.67" width="3.2" height=".79" transform="translate(-1.99 22.01) rotate(-27.58)"/>
  <path class="cls-1" d="M43.49,18.2l3.37-.17-.29-.75-1.75.14c-.24.02-.58.07-.58.07,0,0,.27-.19.47-.34l1.39-1.07-.3-.77-2.61,2.13.29.76Z"/>
  <polygon class="cls-1" points="44.46 21.82 45.11 21.67 44.75 20.05 45.42 19.9 45.72 21.27 46.33 21.13 46.02 19.76 46.58 19.64 46.94 21.23 47.57 21.09 47.04 18.72 43.92 19.42 44.46 21.82"/>
  <path class="cls-1" d="M44.59,23.15l1.2-.08.03.47c.01.07.01.13,0,.2-.01.06-.04.13-.08.18-.04.05-.09.1-.15.13-.06.03-.12.05-.19.06-.31.07-.69.08-.73.17l.05.77h.04c.03-.12.44-.1.85-.19.13-.02.26-.07.36-.16.1-.09.17-.21.2-.34h.01c.06.16.17.3.32.39s.32.13.49.11c.59-.04.89-.54.85-1.19l-.1-1.53-3.19.2.05.8ZM47.16,22.99l.04.61c.02.3-.14.47-.37.47s-.4-.14-.42-.45l-.04-.59.79-.05Z"/>
  <path class="cls-1" d="M46.96,25.72c-.67-.06-.89.51-1.07,1.05-.15.43-.23.68-.47.66-.25-.02-.31-.28-.28-.54.04-.38.19-.58.51-.58l.07-.79c-.71-.05-1.13.47-1.21,1.32-.07.74.25,1.34.92,1.4s.92-.46,1.11-1.03c.15-.47.24-.71.45-.69.18.02.28.21.25.49-.03.28-.18.47-.43.47l-.07.77c.67.03,1.03-.47,1.1-1.16.06-.69-.19-1.29-.87-1.36Z"/>
  <rect class="cls-1" x="45.37" y="27.89" width=".79" height="3.2" transform="translate(7.21 67.93) rotate(-77.71)"/>
  <polygon class="cls-1" points="46.19 31.57 43.79 30.77 43.53 31.52 45.94 32.32 45.64 33.21 46.28 33.42 47.12 30.9 46.48 30.68 46.19 31.57"/>
  <path class="cls-1" d="M42.83,33.25l-.35.71,1.06.52,1.34,1.86.37-.75-.56-.73c-.15-.19-.34-.41-.34-.41,0,0,.29.03.53.03h.92l.38-.78-2.29.09-1.06-.54Z"/>
  <path class="cls-1" d="M1.9,15.39C.01,19.94-.48,24.96.48,29.79c.96,4.84,3.34,9.28,6.82,12.76,3.49,3.49,7.93,5.86,12.76,6.82,4.84.96,9.85.47,14.4-1.42,4.56-1.89,8.45-5.08,11.19-9.18,2.74-4.1,4.2-8.92,4.2-13.85,0-6.61-2.64-12.95-7.31-17.62S31.54,0,24.93,0c-4.93,0-9.75,1.46-13.85,4.2C6.98,6.94,3.78,10.83,1.9,15.39ZM34.34,2.21c4.49,1.86,8.34,5.01,11.04,9.06,2.7,4.04,4.14,8.8,4.14,13.66,0,6.52-2.6,12.77-7.21,17.38-4.61,4.61-10.86,7.2-17.38,7.21-4.86,0-9.62-1.44-13.66-4.14-4.04-2.7-7.2-6.54-9.06-11.04C.35,29.85-.14,24.9.81,20.13c.95-4.77,3.29-9.15,6.73-12.59,3.44-3.44,7.82-5.78,12.59-6.73s9.72-.46,14.21,1.4Z"/>
  <path class="cls-1" d="M26.56,37.42l.19.23c1.48.49,1.72.87,1.72.87l1.13-.58c-.81-.38-1.66-.68-2.53-.88l-.51.37Z"/>
  <path class="cls-1" d="M22.77,37.05c-.87.21-1.71.51-2.52.89l1.13.58s.24-.38,1.71-.87l.19-.24-.52-.37Z"/>
</svg>